<svg width="81" height="55" viewBox="0 0 81 55" fill="none" xmlns="http://www.w3.org/2000/svg">
<path fill-rule="evenodd" clip-rule="evenodd" d="M23.4229 42.4049H49.163L49.2361 42.4051L49.3092 42.4049H49.7189V42.3971C52.9526 42.2897 55.908 41.1074 58.225 39.2033C55.6564 36.6597 54.0652 33.1308 54.0652 29.2302C54.0652 25.0326 55.908 21.2653 58.8287 18.6933C56.3233 16.382 52.9485 14.9657 49.2361 14.9657L49.2074 14.9657L49.1271 14.9661C49.0932 14.6738 49.0515 14.3838 49.0022 14.0963L23.4229 42.4049ZM47.4703 9.4798C44.7021 4.03797 38.9672 0.299805 32.3414 0.299805C23.6346 0.299805 16.466 6.75498 15.5464 15.0486C15.0381 14.9938 14.5217 14.9657 13.9985 14.9657C6.26735 14.9657 0 21.1082 0 28.6854C0 36.2626 6.26735 42.4051 13.9985 42.4051L14.0716 42.4049H17.7196L47.4703 9.4798Z" fill="#EFEFEF"/>
<path fill-rule="evenodd" clip-rule="evenodd" d="M68.772 41.0015C74.9731 41.0015 80.0001 35.9746 80.0001 29.7735C80.0001 23.5724 74.9731 18.5454 68.772 18.5454C62.5709 18.5454 57.5439 23.5724 57.5439 29.7735C57.5439 35.9746 62.5709 41.0015 68.772 41.0015ZM63.0304 28.89L61.7545 27.4461C65.6333 23.0639 71.9171 23.0639 75.7896 27.4461L74.5136 28.89C71.343 25.3019 66.201 25.3019 63.0304 28.89ZM68.772 35.3875L66.8581 33.2217C67.9171 32.0233 69.6333 32.0233 70.6859 33.2217L68.772 35.3875ZM65.5822 31.7778L64.3063 30.3339C66.7752 27.5472 70.7752 27.5472 73.2377 30.3339L71.9618 31.7778C70.201 29.7852 67.343 29.7852 65.5822 31.7778Z" fill="#EFEFEF"/>
<path fill-rule="evenodd" clip-rule="evenodd" d="M15.6296 49.6348L58.3577 1.53533L61.5633 4.29849L18.8352 52.398L15.6296 49.6348Z" fill="#EFEFEF"/>
</svg>
