<svg width="133" height="48" viewBox="0 0 133 48" fill="none" xmlns="http://www.w3.org/2000/svg">
<path d="M0 9.43506H7.62893V32.7656C7.62893 38.5963 9.57509 42.1227 14.565 42.1227C20.4502 42.1227 22.6066 39.3358 22.6066 31.7692V9.43506H30.2277V32.2362C30.2277 43.2748 24.6072 48.0001 14.6195 48.0001C4.63185 48.0001 0 43.3293 0 31.8159V9.43506Z" fill="white"/>
<path d="M43.228 0H49.5725V9.43497H58.953V15.4136H49.5725V24.7395H43.228V15.4136H33.8475V9.43497H43.228V0Z" fill="white"/>
<path d="M62.4482 36.4632H77.0833V29.6206C70.3263 28.6397 67.7107 24.3971 67.7107 19.6095C67.7107 14.3004 71.0892 9.42725 80.0726 9.42725C89.0561 9.42725 92.5203 14.3082 92.5203 19.6095C92.5203 24.4049 89.8268 28.6397 83.1086 29.6206V36.4632H97.7437V41.2975H62.4482V36.4632ZM80.0726 25.121C84.3931 25.121 86.4872 23.3695 86.4872 19.6018C86.4872 16.0909 84.3931 14.2537 80.0726 14.2537C75.7522 14.2537 73.7437 16.0909 73.7437 19.6018C73.7437 23.3695 75.7989 25.121 80.0726 25.121Z" fill="white"/>
<path d="M119.829 10.6651V15.4994H107.381V29.4494C107.381 30.1734 107.513 30.3057 108.152 30.3057H115.983C118.077 30.3057 120.093 29.9632 121.417 29.4961L121.892 33.7309C120.778 34.4549 118.085 35.14 115.563 35.14H104.82C102.679 35.14 101.698 34.1591 101.698 31.8471V10.6651H119.837H119.829ZM126.889 24.6541H117.135V19.6875H126.889V8.77344H132.798V39.6628C132.798 42.3563 132.502 45.657 132.074 47.8756H126.897V24.6463L126.889 24.6541Z" fill="white"/>
</svg>
