<svg width="325" height="230" viewBox="0 0 325 230" fill="none" xmlns="http://www.w3.org/2000/svg">
<g opacity="0.5">
<path d="M187.811 111.79C186.32 111.79 185.05 111.913 184.01 112.158C182.965 112.403 181.955 112.864 180.979 113.541C180.356 113.977 179.856 114.571 179.473 115.331C179.091 116.091 178.904 116.807 178.904 117.489V129.652H173.171V107.077H178.904V109.436C180.15 108.514 181.543 107.837 183.073 107.401C184.603 106.969 186.187 106.748 187.811 106.748V111.795V111.79Z" fill="white"/>
<path d="M256.41 111.79C254.919 111.79 253.648 111.913 252.609 112.158C251.564 112.403 250.554 112.864 249.578 113.541C248.955 113.977 248.455 114.571 248.072 115.331C247.689 116.091 247.503 116.807 247.503 117.489V129.652H241.77V107.077H247.503V109.436C248.749 108.514 250.142 107.837 251.672 107.401C253.202 106.969 254.786 106.748 256.41 106.748V111.795V111.79Z" fill="white"/>
<path d="M133.587 112.884H139.835V108.372H133.587V102.589L123.984 111.829V112.884H128.133V123.119C128.133 127.347 130.34 129.647 135.152 129.647H139.84V124.282H136.594C134.784 124.282 133.592 123.733 133.592 121.707V112.879L133.587 112.884Z" fill="white"/>
<path d="M206.458 100.348V109.838C204.565 108.332 202.171 107.43 199.562 107.43C193.426 107.43 188.453 112.403 188.453 118.539C188.453 124.674 193.426 129.647 199.562 129.647C202.171 129.647 204.565 128.74 206.458 127.239V129.647H212.461V100.348H206.458ZM200.553 124.385C197.296 124.385 194.653 121.746 194.653 118.485C194.653 115.223 197.291 112.585 200.553 112.585C203.814 112.585 206.453 115.223 206.453 118.485C206.453 121.746 203.814 124.385 200.553 124.385Z" fill="white"/>
<path d="M158.536 107.092C152.307 107.092 147.256 112.143 147.256 118.372C147.256 124.6 152.307 129.652 158.536 129.652C164.765 129.652 169.816 124.6 169.816 118.372C169.816 112.143 164.765 107.092 158.536 107.092ZM158.536 124.434C155.186 124.434 152.469 121.717 152.469 118.367C152.469 115.017 155.186 112.3 158.536 112.3C161.886 112.3 164.603 115.017 164.603 118.367C164.603 121.717 161.886 124.434 158.536 124.434Z" fill="white"/>
<path d="M238.327 119.794C238.386 119.328 238.425 118.852 238.425 118.372C238.425 112.143 233.373 107.092 227.145 107.092C220.916 107.092 215.864 112.143 215.864 118.372C215.864 124.6 220.916 129.652 227.145 129.652C232.088 129.652 236.277 126.464 237.802 122.04H231.971C230.862 123.497 229.116 124.439 227.145 124.439C224.285 124.439 221.892 122.457 221.254 119.789H233.04C233.04 119.789 233.04 119.789 233.04 119.794H238.327ZM227.15 112.305C229.602 112.305 231.711 113.767 232.667 115.861H221.632C222.588 113.767 224.697 112.305 227.15 112.305Z" fill="white"/>
<path d="M145.353 102.663C145.083 102.53 144.779 102.457 144.46 102.457C143.332 102.457 142.415 103.374 142.415 104.502C142.415 105.002 142.597 105.458 142.896 105.816C142.896 105.816 142.92 105.841 142.93 105.856C142.935 105.865 142.945 105.87 142.95 105.88C145.735 109.083 142.621 111.564 142.621 111.564C142.621 111.564 142.857 111.927 142.96 112.089C148.104 110.544 147.751 103.796 145.348 102.668L145.353 102.663Z" fill="white"/>
<path d="M143.014 112.158C143.014 112.158 142.994 112.128 142.964 112.084L143.014 112.158Z" fill="white"/>
<path d="M97.1616 126.435L116.417 114.473L97.1567 102.633" stroke="white" stroke-width="0.980893" stroke-linecap="square" stroke-linejoin="round"/>
<path d="M97.1568 102.633L78.7307 91.4905L59.4905 103.477L77.8136 114.674" stroke="white" stroke-width="0.980893" stroke-linecap="square" stroke-linejoin="round"/>
<path d="M96.5977 102.962L77.8136 114.674V115.346V138.509L97.1617 126.435V126.307L97.1568 103.305V102.633L96.5977 102.962Z" stroke="white" stroke-width="0.980893" stroke-linecap="square" stroke-linejoin="round"/>
</g>
</svg>
